<svg xmlns="http://www.w3.org/2000/svg" viewBox="0 0 292.38 119.89"><defs><style>.cls-1{fill:#005c5d;}</style></defs><title>logo</title><g id="Layer_2" data-name="Layer 2"><g id="Capa_1" data-name="Capa 1"><path class="cls-1" d="M14.05,99.61a1.7,1.7,0,0,1-.44-1.26v-13a1.55,1.55,0,0,1,1.7-1.7h8.23c1.14,0,1.72.47,1.72,1.4s-.58,1.42-1.72,1.42h-6.4V90.3h5.93c1.15,0,1.72.48,1.72,1.42s-.57,1.4-1.72,1.4H17.14v4.11h6.4c1.14,0,1.72.48,1.72,1.42s-.58,1.4-1.72,1.4H15.31A1.71,1.71,0,0,1,14.05,99.61Z"/><path class="cls-1" d="M44.28,89.48a5.53,5.53,0,0,1,1,3.68v5.38a1.55,1.55,0,0,1-.49,1.23,1.88,1.88,0,0,1-1.26.42,1.91,1.91,0,0,1-1.25-.42,1.5,1.5,0,0,1-.51-1.23V93.12a2.42,2.42,0,0,0-.39-1.57,1.46,1.46,0,0,0-1.17-.46,2,2,0,0,0-1.56.68,2.78,2.78,0,0,0-.58,1.88v4.89a1.52,1.52,0,0,1-.49,1.23,1.86,1.86,0,0,1-1.26.42,1.91,1.91,0,0,1-1.25-.42,1.5,1.5,0,0,1-.51-1.23V93.12a2.42,2.42,0,0,0-.39-1.57A1.44,1.44,0,0,0,33,91.09a2,2,0,0,0-1.56.68,2.78,2.78,0,0,0-.58,1.88v4.89a1.53,1.53,0,0,1-.5,1.23,1.86,1.86,0,0,1-1.24.42,1.92,1.92,0,0,1-1.26-.42,1.5,1.5,0,0,1-.51-1.23V90a1.44,1.44,0,0,1,.52-1.19,2,2,0,0,1,1.27-.41,1.71,1.71,0,0,1,1.16.4,1.44,1.44,0,0,1,.47,1.13v.23a3.76,3.76,0,0,1,1.45-1.35,4.36,4.36,0,0,1,2-.46,4.09,4.09,0,0,1,2.09.5,3.23,3.23,0,0,1,1.31,1.62,4,4,0,0,1,1.52-1.55,4.43,4.43,0,0,1,2.25-.57A3.6,3.6,0,0,1,44.28,89.48Z"/><path class="cls-1" d="M58.08,97a1.54,1.54,0,0,1,.29,1,1.25,1.25,0,0,1-.24.73,1.92,1.92,0,0,1-.65.57,9,9,0,0,1-3.76,1,7,7,0,0,1-3.25-.72,5,5,0,0,1-2.12-2.06,6.33,6.33,0,0,1-.75-3.15,6.46,6.46,0,0,1,.72-3.09,5.26,5.26,0,0,1,2-2.1,5.54,5.54,0,0,1,2.91-.76A5.27,5.27,0,0,1,56,89,4.73,4.73,0,0,1,57.79,91a6.43,6.43,0,0,1,.65,3,1.12,1.12,0,0,1-.25.78.87.87,0,0,1-.68.27H51a3,3,0,0,0,.83,2,2.78,2.78,0,0,0,1.93.61A4.08,4.08,0,0,0,55,97.44,11.31,11.31,0,0,0,56.16,97a5.41,5.41,0,0,1,.63-.24,1.67,1.67,0,0,1,.53-.11A1,1,0,0,1,58.08,97Zm-6.36-5.61A2.93,2.93,0,0,0,51,93.26h4.48a3,3,0,0,0-.61-1.86,2,2,0,0,0-1.55-.63A2.07,2.07,0,0,0,51.72,91.41Z"/><path class="cls-1" d="M68.7,88.71a1.37,1.37,0,0,1,.41,1.08,1.55,1.55,0,0,1-.37,1.14,2.21,2.21,0,0,1-1.33.47l-.7.07a2.63,2.63,0,0,0-1.84.83,2.76,2.76,0,0,0-.57,1.79v4.45a1.53,1.53,0,0,1-.5,1.23,1.89,1.89,0,0,1-1.25.42,1.93,1.93,0,0,1-1.27-.42,1.52,1.52,0,0,1-.49-1.23V90a1.46,1.46,0,0,1,.51-1.19,1.92,1.92,0,0,1,1.23-.41,1.71,1.71,0,0,1,1.16.4,1.44,1.44,0,0,1,.47,1.13v.63A3.27,3.27,0,0,1,65.42,89a4.09,4.09,0,0,1,1.85-.6l.33,0A1.45,1.45,0,0,1,68.7,88.71Z"/><path class="cls-1" d="M81.28,88.85a1.57,1.57,0,0,1,.48,1.2v8.76A5.3,5.3,0,0,1,80.15,103a6.85,6.85,0,0,1-4.69,1.42,8.73,8.73,0,0,1-4.28-.93,1.92,1.92,0,0,1-.65-.57,1.29,1.29,0,0,1-.24-.76,1.6,1.6,0,0,1,.28-1,.89.89,0,0,1,.75-.37,2.08,2.08,0,0,1,.6.1,6.84,6.84,0,0,1,.72.25c.5.18,1,.33,1.38.44a5.18,5.18,0,0,0,1.34.16,3.13,3.13,0,0,0,2.21-.67,2.69,2.69,0,0,0,.72-2.05V97.81a3.41,3.41,0,0,1-1.46,1.4,4.65,4.65,0,0,1-2.19.51A5,5,0,0,1,72,99a4.84,4.84,0,0,1-1.8-2,6.54,6.54,0,0,1-.65-3,6.61,6.61,0,0,1,.65-3,4.78,4.78,0,0,1,4.44-2.71,4.63,4.63,0,0,1,2.15.5,3.53,3.53,0,0,1,1.48,1.38V90a1.47,1.47,0,0,1,.48-1.17,2,2,0,0,1,2.53,0Zm-3.7,7.41a3.9,3.9,0,0,0,0-4.43A2.35,2.35,0,0,0,75.67,91a2.39,2.39,0,0,0-1.93.81,3.85,3.85,0,0,0,0,4.43,2.44,2.44,0,0,0,1.93.79A2.4,2.4,0,0,0,77.58,96.26Z"/><path class="cls-1" d="M94.6,97a1.49,1.49,0,0,1,.3,1,1.25,1.25,0,0,1-.24.73,1.92,1.92,0,0,1-.65.57,7.93,7.93,0,0,1-1.84.68,7.7,7.7,0,0,1-1.92.27A6.93,6.93,0,0,1,87,99.51a5.1,5.1,0,0,1-2.13-2.06,7,7,0,0,1,0-6.24,5.26,5.26,0,0,1,2-2.1,5.54,5.54,0,0,1,2.91-.76,5.3,5.3,0,0,1,2.73.69A4.64,4.64,0,0,1,94.31,91,6.3,6.3,0,0,1,95,94a1.12,1.12,0,0,1-.24.78A.87.87,0,0,1,94,95H87.52a3.1,3.1,0,0,0,.84,2,2.76,2.76,0,0,0,1.93.61,4.12,4.12,0,0,0,1.21-.16A11.31,11.31,0,0,0,92.69,97a6,6,0,0,1,.62-.24,1.73,1.73,0,0,1,.54-.11A.92.92,0,0,1,94.6,97Zm-6.36-5.61a3,3,0,0,0-.72,1.85H92a3,3,0,0,0-.61-1.86,2,2,0,0,0-1.55-.63A2.11,2.11,0,0,0,88.24,91.41Z"/><path class="cls-1" d="M107.52,89.55a5.51,5.51,0,0,1,1,3.61v5.38a1.54,1.54,0,0,1-.48,1.2,2.06,2.06,0,0,1-2.57,0,1.56,1.56,0,0,1-.46-1.2V93.33a2.69,2.69,0,0,0-.43-1.7,1.61,1.61,0,0,0-1.34-.54,2.31,2.31,0,0,0-1.75.7,2.56,2.56,0,0,0-.67,1.86v4.89a1.56,1.56,0,0,1-.46,1.2,1.77,1.77,0,0,1-1.28.45,1.81,1.81,0,0,1-1.29-.45,1.54,1.54,0,0,1-.48-1.2V90a1.48,1.48,0,0,1,.5-1.16,1.92,1.92,0,0,1,1.29-.44,1.63,1.63,0,0,1,1.18.43,1.44,1.44,0,0,1,.45,1.1v.33a4,4,0,0,1,1.57-1.42,4.68,4.68,0,0,1,2.17-.49A3.74,3.74,0,0,1,107.52,89.55Z"/><path class="cls-1" d="M113.57,99.51a4.86,4.86,0,0,1-2-2.05,6.52,6.52,0,0,1-.71-3.11,6.33,6.33,0,0,1,.76-3.15,5.22,5.22,0,0,1,2.13-2.11,6.56,6.56,0,0,1,3.16-.74,6.75,6.75,0,0,1,1.87.26,6.29,6.29,0,0,1,1.69.72,1.45,1.45,0,0,1,.72,1.3,1.7,1.7,0,0,1-.28,1,.9.9,0,0,1-.75.38,1.56,1.56,0,0,1-.57-.1c-.18-.07-.41-.18-.71-.32a6.23,6.23,0,0,0-.87-.39,2.34,2.34,0,0,0-.87-.14,2.44,2.44,0,0,0-2,.82,3.68,3.68,0,0,0-.68,2.41,3.73,3.73,0,0,0,.68,2.42,2.42,2.42,0,0,0,2,.83,2.79,2.79,0,0,0,.86-.12,7.15,7.15,0,0,0,.91-.41l.69-.31a1.47,1.47,0,0,1,.56-.11.85.85,0,0,1,.73.4,1.59,1.59,0,0,1,.3,1,1.41,1.41,0,0,1-.72,1.28,6.29,6.29,0,0,1-1.73.72,8,8,0,0,1-2,.25A6.35,6.35,0,0,1,113.57,99.51Z"/><path class="cls-1" d="M123.4,86.06a1.64,1.64,0,0,1-.54-1.29,1.6,1.6,0,0,1,.54-1.28,2.17,2.17,0,0,1,1.46-.47,2.19,2.19,0,0,1,1.46.48,1.61,1.61,0,0,1,.54,1.27,1.63,1.63,0,0,1-.53,1.29,2.48,2.48,0,0,1-2.93,0Zm.2,13.71a1.5,1.5,0,0,1-.5-1.23V90.05a1.51,1.51,0,0,1,.51-1.24,2.11,2.11,0,0,1,2.5,0,1.53,1.53,0,0,1,.5,1.24v8.49a1.53,1.53,0,0,1-.5,1.23,2.09,2.09,0,0,1-2.51,0Z"/><path class="cls-1" d="M138.4,89.57a5.13,5.13,0,0,1,1.21,3.73v5.26a1.59,1.59,0,0,1-.45,1.2,1.7,1.7,0,0,1-1.23.43,1.66,1.66,0,0,1-1.2-.46,1.58,1.58,0,0,1-.45-1.17v-.17a2.69,2.69,0,0,1-1.16,1.35,3.6,3.6,0,0,1-1.91.49,4.69,4.69,0,0,1-2.1-.46,3.65,3.65,0,0,1-1.49-1.31,3.33,3.33,0,0,1-.55-1.86,2.9,2.9,0,0,1,.64-2,3.85,3.85,0,0,1,2.06-1,18.73,18.73,0,0,1,3.88-.32h.61v-.42a2,2,0,0,0-.43-1.42A1.93,1.93,0,0,0,134.4,91a9.16,9.16,0,0,0-2.88.69,2.23,2.23,0,0,1-.91.26,1,1,0,0,1-.82-.36,1.41,1.41,0,0,1-.3-.94,1.32,1.32,0,0,1,.21-.77,2,2,0,0,1,.68-.56,7.62,7.62,0,0,1,2-.69,10.38,10.38,0,0,1,2.32-.26A5.06,5.06,0,0,1,138.4,89.57Zm-2.77,7.56a2.53,2.53,0,0,0,.63-1.78V95h-.4a8.06,8.06,0,0,0-2.64.3,1.11,1.11,0,0,0-.75,1.1,1.4,1.4,0,0,0,.43,1.06,1.52,1.52,0,0,0,1.08.4A2.16,2.16,0,0,0,135.63,97.13Z"/><path class="cls-1" d="M158.57,88.68a1.51,1.51,0,0,1,.82-.24,1.83,1.83,0,0,1,1.19.43,1.32,1.32,0,0,1,.51,1,1.42,1.42,0,0,1-.16.65l-6.26,12.83a1.69,1.69,0,0,1-.62.74,1.63,1.63,0,0,1-.84.24,1.67,1.67,0,0,1-1.14-.42,1.29,1.29,0,0,1-.49-1,1.67,1.67,0,0,1,.16-.7l1.54-3.18-4.14-8.49a1.67,1.67,0,0,1-.14-.63,1.33,1.33,0,0,1,.55-1.07,1.94,1.94,0,0,1,1.24-.44,1.54,1.54,0,0,1,.86.25,1.69,1.69,0,0,1,.63.73l2.88,6.27L158,89.4A1.38,1.38,0,0,1,158.57,88.68Z"/><path class="cls-1" d="M172.41,100a5.67,5.67,0,0,1-1.83-.74,1.53,1.53,0,0,1-.54-.56,1.73,1.73,0,0,1-.18-.79,1.36,1.36,0,0,1,.3-.9.93.93,0,0,1,.74-.36,1.87,1.87,0,0,1,.61.11c.2.06.41.15.63.24a9.07,9.07,0,0,0,1.27.48,6.24,6.24,0,0,0,1.56.17,2.75,2.75,0,0,0,1.27-.25.8.8,0,0,0,.45-.7.69.69,0,0,0-.19-.52,1.8,1.8,0,0,0-.74-.37c-.35-.1-.92-.24-1.7-.39a6.33,6.33,0,0,1-3-1.19,2.74,2.74,0,0,1-.91-2.2,3.08,3.08,0,0,1,.64-1.89,4.17,4.17,0,0,1,1.76-1.31,6.28,6.28,0,0,1,2.51-.48,7.11,7.11,0,0,1,1.95.26,6.22,6.22,0,0,1,1.7.72,1.55,1.55,0,0,1,.42,2.23.92.92,0,0,1-.75.37,2.76,2.76,0,0,1-1.28-.42,6.74,6.74,0,0,0-1-.45,3.82,3.82,0,0,0-1.13-.15,2.09,2.09,0,0,0-1.14.27.81.81,0,0,0-.42.73.8.8,0,0,0,.49.74,7.68,7.68,0,0,0,1.88.51,10.91,10.91,0,0,1,2.44.73A2.92,2.92,0,0,1,179.48,95a3.06,3.06,0,0,1,.4,1.65,3.11,3.11,0,0,1-1.36,2.63,6.13,6.13,0,0,1-3.64,1A11.86,11.86,0,0,1,172.41,100Z"/><path class="cls-1" d="M192,97a1.54,1.54,0,0,1,.29,1,1.31,1.31,0,0,1-.23.73,2.07,2.07,0,0,1-.66.57,9,9,0,0,1-3.76,1,7,7,0,0,1-3.25-.72,5,5,0,0,1-2.12-2.06,6.33,6.33,0,0,1-.75-3.15,6.46,6.46,0,0,1,.72-3.09,5.26,5.26,0,0,1,2-2.1,5.54,5.54,0,0,1,2.91-.76,5.27,5.27,0,0,1,2.73.69A4.73,4.73,0,0,1,191.74,91a6.43,6.43,0,0,1,.65,3,1.08,1.08,0,0,1-.25.78.87.87,0,0,1-.68.27H185a3.09,3.09,0,0,0,.83,2,2.78,2.78,0,0,0,1.93.61,4.08,4.08,0,0,0,1.21-.16,11.31,11.31,0,0,0,1.19-.44c.22-.09.43-.18.63-.24a1.67,1.67,0,0,1,.53-.11A1,1,0,0,1,192,97Zm-6.36-5.61a2.93,2.93,0,0,0-.72,1.85h4.48a3,3,0,0,0-.61-1.86,2,2,0,0,0-1.55-.63A2.07,2.07,0,0,0,185.67,91.41Z"/><path class="cls-1" d="M205.91,88.85a1.57,1.57,0,0,1,.48,1.2v8.76a5.3,5.3,0,0,1-1.61,4.19,6.86,6.86,0,0,1-4.7,1.42,8.71,8.71,0,0,1-4.27-.93,2.07,2.07,0,0,1-.66-.57,1.36,1.36,0,0,1-.23-.76,1.6,1.6,0,0,1,.28-1,.88.88,0,0,1,.75-.37,2.08,2.08,0,0,1,.6.1c.23.07.47.15.72.25.5.18.95.33,1.37.44a5.32,5.32,0,0,0,1.35.16,3.14,3.14,0,0,0,2.21-.67,2.69,2.69,0,0,0,.72-2.05V97.81a3.41,3.41,0,0,1-1.46,1.4,4.65,4.65,0,0,1-2.19.51,5,5,0,0,1-2.64-.7,4.71,4.71,0,0,1-1.8-2,6.41,6.41,0,0,1-.65-3,6.48,6.48,0,0,1,.65-3,4.79,4.79,0,0,1,1.8-2,5,5,0,0,1,2.64-.71,4.63,4.63,0,0,1,2.15.5,3.59,3.59,0,0,1,1.48,1.38V90a1.5,1.5,0,0,1,.47-1.17,1.81,1.81,0,0,1,1.27-.43A1.78,1.78,0,0,1,205.91,88.85Zm-3.7,7.41a3.9,3.9,0,0,0,0-4.43,2.39,2.39,0,0,0-1.92-.81,2.42,2.42,0,0,0-1.93.81,3.9,3.9,0,0,0,0,4.43,2.47,2.47,0,0,0,1.93.79A2.44,2.44,0,0,0,202.21,96.26Z"/><path class="cls-1" d="M219.83,88.84a1.56,1.56,0,0,1,.48,1.21v8.53a1.44,1.44,0,0,1-.5,1.16,1.84,1.84,0,0,1-1.29.45,1.62,1.62,0,0,1-1.18-.42,1.45,1.45,0,0,1-.45-1.12v-.23a3.56,3.56,0,0,1-1.4,1.35A4.76,4.76,0,0,1,210.3,99a5.38,5.38,0,0,1-1.06-3.62V90.05a1.56,1.56,0,0,1,.48-1.21A1.85,1.85,0,0,1,211,88.4a1.81,1.81,0,0,1,1.28.44,1.59,1.59,0,0,1,.47,1.21v5.44a2.21,2.21,0,0,0,.43,1.51,1.63,1.63,0,0,0,1.31.49,2.12,2.12,0,0,0,1.66-.7A2.59,2.59,0,0,0,216.8,95v-4.9a1.59,1.59,0,0,1,.47-1.21,2.08,2.08,0,0,1,2.56,0Z"/><path class="cls-1" d="M231.16,88.71a1.37,1.37,0,0,1,.41,1.08,1.55,1.55,0,0,1-.38,1.14,2.18,2.18,0,0,1-1.32.47l-.7.07a2.66,2.66,0,0,0-1.85.83,2.76,2.76,0,0,0-.57,1.79v4.45a1.5,1.5,0,0,1-.5,1.23,1.86,1.86,0,0,1-1.24.42,1.91,1.91,0,0,1-1.27-.42,1.53,1.53,0,0,1-.5-1.23V90a1.46,1.46,0,0,1,.51-1.19A2,2,0,0,1,225,88.4a1.71,1.71,0,0,1,1.16.4,1.43,1.43,0,0,1,.46,1.13v.63A3.23,3.23,0,0,1,227.88,89a4,4,0,0,1,1.85-.6l.33,0A1.45,1.45,0,0,1,231.16,88.71Z"/><path class="cls-1" d="M233.1,86.06a1.64,1.64,0,0,1-.54-1.29,1.6,1.6,0,0,1,.54-1.28,2.15,2.15,0,0,1,1.46-.47,2.19,2.19,0,0,1,1.46.48,1.61,1.61,0,0,1,.54,1.27,1.63,1.63,0,0,1-.53,1.29,2.48,2.48,0,0,1-2.93,0Zm.2,13.71a1.5,1.5,0,0,1-.5-1.23V90.05a1.51,1.51,0,0,1,.51-1.24,2,2,0,0,1,1.25-.41,1.92,1.92,0,0,1,1.25.41,1.53,1.53,0,0,1,.5,1.24v8.49a1.53,1.53,0,0,1-.5,1.23,2.09,2.09,0,0,1-2.51,0Z"/><path class="cls-1" d="M250.29,84a1.44,1.44,0,0,1,.5,1.16v13.4a1.59,1.59,0,0,1-.47,1.19,2,2,0,0,1-2.54,0,1.55,1.55,0,0,1-.47-1.19v-.19a3.54,3.54,0,0,1-1.46,1.38,4.34,4.34,0,0,1-2.12.5,4.7,4.7,0,0,1-2.62-.75,5.05,5.05,0,0,1-1.79-2.12,7.23,7.23,0,0,1-.64-3.13,7.07,7.07,0,0,1,.64-3.1,4.87,4.87,0,0,1,1.78-2.06,4.8,4.8,0,0,1,2.63-.72,4.45,4.45,0,0,1,2.1.49,3.43,3.43,0,0,1,1.45,1.37V85.07a1.43,1.43,0,0,1,.47-1.11,1.77,1.77,0,0,1,1.23-.42A1.92,1.92,0,0,1,250.29,84Zm-3.65,12.73a3.84,3.84,0,0,0,.67-2.43,3.79,3.79,0,0,0-.67-2.42,2.26,2.26,0,0,0-1.89-.84,2.34,2.34,0,0,0-1.91.83,3.67,3.67,0,0,0-.67,2.38,4,4,0,0,0,.67,2.46,2.53,2.53,0,0,0,3.8,0Z"/><path class="cls-1" d="M262.58,89.57a5.09,5.09,0,0,1,1.21,3.73v5.26a1.62,1.62,0,0,1-.44,1.2,1.7,1.7,0,0,1-1.23.43,1.63,1.63,0,0,1-1.2-.46,1.58,1.58,0,0,1-.45-1.17v-.17a2.71,2.71,0,0,1-1.17,1.35,3.56,3.56,0,0,1-1.9.49,4.7,4.7,0,0,1-2.11-.46,3.69,3.69,0,0,1-1.48-1.31,3.25,3.25,0,0,1-.55-1.86,2.85,2.85,0,0,1,.64-2,3.81,3.81,0,0,1,2.06-1,18.66,18.66,0,0,1,3.88-.32h.6v-.42a2,2,0,0,0-.43-1.42,1.9,1.9,0,0,0-1.43-.44,9.28,9.28,0,0,0-2.88.69,2.23,2.23,0,0,1-.91.26,1,1,0,0,1-.81-.36,1.41,1.41,0,0,1-.3-.94,1.32,1.32,0,0,1,.21-.77,1.84,1.84,0,0,1,.67-.56,7.7,7.7,0,0,1,2-.69,10.23,10.23,0,0,1,2.31-.26A5,5,0,0,1,262.58,89.57Zm-2.76,7.56a2.57,2.57,0,0,0,.62-1.78V95h-.39a8,8,0,0,0-2.64.3,1.1,1.1,0,0,0-.76,1.1,1.44,1.44,0,0,0,.43,1.06,1.52,1.52,0,0,0,1.08.4A2.16,2.16,0,0,0,259.82,97.13Z"/><path class="cls-1" d="M277.71,84a1.48,1.48,0,0,1,.5,1.16v13.4a1.56,1.56,0,0,1-.48,1.19,2,2,0,0,1-2.54,0,1.59,1.59,0,0,1-.47-1.19v-.19a3.57,3.57,0,0,1-1.45,1.38,4.41,4.41,0,0,1-2.13.5,4.7,4.7,0,0,1-2.62-.75,5.12,5.12,0,0,1-1.79-2.12,7.38,7.38,0,0,1-.64-3.13,7.21,7.21,0,0,1,.64-3.1,4.68,4.68,0,0,1,4.41-2.78,4.45,4.45,0,0,1,2.1.49,3.51,3.51,0,0,1,1.46,1.37V85.07a1.42,1.42,0,0,1,.46-1.11,1.77,1.77,0,0,1,1.23-.42A2,2,0,0,1,277.71,84Zm-3.65,12.73a3.9,3.9,0,0,0,.66-2.43,3.85,3.85,0,0,0-.66-2.42,2.58,2.58,0,0,0-3.8,0,3.67,3.67,0,0,0-.68,2.38,4,4,0,0,0,.68,2.46,2.26,2.26,0,0,0,1.9.87A2.3,2.3,0,0,0,274.06,96.71Z"/><path class="cls-1" d="M288,119.89H4a4.07,4.07,0,0,1-4-4.14V83.13A4.08,4.08,0,0,1,4,79a4.07,4.07,0,0,1,4,4.15V111.6H284V80a4,4,0,1,1,8,0v35.76A4.07,4.07,0,0,1,288,119.89Z"/><path class="cls-1" d="M2,62.92A6.87,6.87,0,0,1,0,57.81V7.15A6.61,6.61,0,0,1,1.72,2.26,6.64,6.64,0,0,1,6.61.54H37.73A7.83,7.83,0,0,1,42.79,1.9a5.21,5.21,0,0,1,1.63,4.25,5.09,5.09,0,0,1-1.63,4.16q-1.62,1.37-5.06,1.36H13.93V26.33h22q3.44,0,5.06,1.35a5.24,5.24,0,0,1,1.63,4.26A5.09,5.09,0,0,1,41,36.1a7.83,7.83,0,0,1-5.06,1.36h-22V57.81A7.09,7.09,0,0,1,12.08,63a6.69,6.69,0,0,1-5,1.9A6.89,6.89,0,0,1,2,62.92Z"/><path class="cls-1" d="M102.79,37a16.91,16.91,0,0,0-9-5.66,15.81,15.81,0,0,0,7.76-5.47,14.18,14.18,0,0,0,2.81-8.73A14.15,14.15,0,0,0,98.23,5Q92.1.54,81.62.54h-24a7.21,7.21,0,0,0-5.14,1.72,6.45,6.45,0,0,0-1.8,4.89V57.72a6.45,6.45,0,0,0,1.8,4.89,7.21,7.21,0,0,0,5.14,1.72H82.57q11,0,17.18-4.71A15.11,15.11,0,0,0,106,46.87,15.44,15.44,0,0,0,102.79,37ZM89.42,51.66c-1.77,1.27-4.63,1.9-8.56,1.9H65.15V11.31h14q5.7,0,8.42,1.85A6.6,6.6,0,0,1,90.28,19a6.39,6.39,0,0,1-2.71,5.65c-1.59,1.09-2.75,1.66-5.87,1.79-3,.4-4.16,2.69-4,5.5.21,2.45,1,5.34,5.54,5.5,3.69.05,4.51.56,6.21,1.83s2.67,3.4,2.67,6.24S91.2,50.39,89.42,51.66Z"/><path class="cls-1" d="M174,55.73,148.34,4.43a8.17,8.17,0,0,0-3.24-3.25A9.08,9.08,0,0,0,140.53,0a9.33,9.33,0,0,0-4.47,1.13,7.27,7.27,0,0,0-3.14,3.3l-25.7,51.3a7,7,0,0,0-.76,2.9,5.32,5.32,0,0,0,2.19,4.29,7.67,7.67,0,0,0,4.95,1.77,6.58,6.58,0,0,0,3.47-.95,6.13,6.13,0,0,0,2.43-2.85L140.72,16l21.13,44.88a6.11,6.11,0,0,0,2.48,2.85,6.7,6.7,0,0,0,3.43.95,7.48,7.48,0,0,0,4.9-1.77,5.35,5.35,0,0,0,2.14-4.29A6.83,6.83,0,0,0,174,55.73Z"/><path class="cls-1" d="M148,44.82a5.12,5.12,0,0,1-5,5.25h-4.85a5.12,5.12,0,0,1-5-5.25h0a5.11,5.11,0,0,1,5-5.25H143a5.12,5.12,0,0,1,5,5.25Z"/><path class="cls-1" d="M226.1,5.79Q220,.54,209.06.54H185.18A7.22,7.22,0,0,0,180,2.26a6.45,6.45,0,0,0-1.8,4.89V57.81a6.75,6.75,0,0,0,2,5.16,8.68,8.68,0,0,0,10.84,0,6.75,6.75,0,0,0,2-5.16V11.31h14.09q11.15,0,11.14,9.23,0,8.49-9.64,9.09H205a4.45,4.45,0,0,0-1.32.22,3.13,3.13,0,0,0-.54.19l-.09,0a4,4,0,0,0-1.42,1.05,5.66,5.66,0,0,0,.28,8,3.61,3.61,0,0,0,2.55,1.24h4.64s3-.06,3.38-.15q8.53-.71,13.66-5.1,6.09-5.24,6.09-14.65T226.1,5.79Z"/><path class="cls-1" d="M286.29,5.79Q280.2.54,269.25.54H245.37a7.17,7.17,0,0,0-5.14,1.72,6.42,6.42,0,0,0-1.81,4.89V57.81a6.75,6.75,0,0,0,2,5.16,8.68,8.68,0,0,0,10.84,0,6.75,6.75,0,0,0,2-5.16V11.31h14.09q11.14,0,11.14,9.23,0,8.49-9.64,9.09h-3.7a4.45,4.45,0,0,0-1.32.22,3.13,3.13,0,0,0-.54.19l-.09,0a4,4,0,0,0-1.42,1.05,5.66,5.66,0,0,0,.28,8,3.61,3.61,0,0,0,2.55,1.24h4.64s3-.06,3.38-.15q8.53-.71,13.66-5.1,6.09-5.24,6.09-14.65T286.29,5.79Z"/></g></g></svg>