<?xml version="1.0" encoding="utf-8"?>
<!-- Generator: Adobe Illustrator 16.0.0, SVG Export Plug-In . SVG Version: 6.00 Build 0)  -->
<!DOCTYPE svg PUBLIC "-//W3C//DTD SVG 1.1//EN" "http://www.w3.org/Graphics/SVG/1.1/DTD/svg11.dtd">
<svg version="1.1" id="Capa_1" xmlns="http://www.w3.org/2000/svg" xmlns:xlink="http://www.w3.org/1999/xlink" x="0px" y="0px"
	 width="500px" height="500px" viewBox="0 0 500 500" enable-background="new 0 0 500 500" xml:space="preserve">
<g>
	<g>
		<path fill-rule="evenodd" clip-rule="evenodd" fill="#D3D3D3" d="M373.666,191.225C358.574,118.161,284.14,69.697,211.248,85.462
			c-64.876,14.004-109.509,68.842-110.336,138.219c0,27.142,8.62,54.438,26.519,78.484c34.842,46.842,69.981,93.479,105.028,140.203
			c5.03,6.715,7.541,6.715,12.59,0c34.404-45.916,68.921-91.754,103.205-137.726C373.581,270.671,382.249,232.831,373.666,191.225z
			 M249.223,300.599c-53.895-0.172-97.728-44.405-97.635-98.541c0.074-54.388,44.065-98.431,98.276-98.468
			c54.406-0.019,98.62,44.42,98.351,98.863C347.938,257.156,303.927,300.785,249.223,300.599z"/>
		<path fill-rule="evenodd" clip-rule="evenodd" fill="#D3D3D3" d="M241.867,154.477c-30.927-0.019-55.8,24.763-55.837,55.615
			c-0.018,30.997,25.163,56.196,55.968,56.01c30.63-0.173,55.596-25.087,55.67-55.559
			C297.725,179.392,272.962,154.514,241.867,154.477z"/>
	</g>
	<g>
		<path fill="#646A68" d="M430.954,171.186C417.062,84.249,339.596,18.647,250.618,18.09c-9.448,0.86-18.932,1.59-28.369,2.608
			c-3.897,0.419-7.812,1.306-11.661,2.167c-81.112,18.108-138.679,87.792-143.747,166.96c-2.864,44.8,8.647,85.463,35.278,121.453
			c38.032,51.379,76.575,102.359,114.987,153.491c17.127,22.782,48.371,22.875,65.424,0.154
			c37.864-50.302,75.747-100.644,113.359-151.131C427.589,271.28,439.369,223.718,430.954,171.186z M368.311,293.054
			c-37.065,49.72-74.381,99.262-111.583,148.902c-5.44,7.258-8.165,7.258-13.614,0c-37.882-50.511-75.876-100.926-113.526-151.566
			c-19.36-25.991-28.677-55.5-28.677-84.854c0.883-75.012,49.143-134.29,119.281-149.433
			c78.806-17.04,159.275,35.348,175.585,114.344C405.057,215.419,395.703,256.348,368.311,293.054z"/>
		<path fill="#646A68" d="M249.864,103.59c-54.211,0.037-98.202,44.08-98.276,98.468c-0.093,54.136,43.74,98.369,97.635,98.541
			c54.704,0.187,98.714-43.442,98.992-98.146C348.484,148.01,304.271,103.571,249.864,103.59z M250.097,266.102
			c-35.278,0.204-64.085-28.621-64.067-64.105c0.037-35.311,28.51-63.663,63.91-63.643c35.576,0.037,63.909,28.504,63.853,64.173
			C313.718,237.388,285.135,265.91,250.097,266.102z"/>
	</g>
</g>
<g>
</g>
<g>
</g>
<g>
</g>
<g>
</g>
<g>
</g>
<g>
</g>
<g>
</g>
<g>
</g>
<g>
</g>
<g>
</g>
<g>
</g>
</svg>
